<?xml version="1.0" encoding="UTF-8"?>
<svg width="32" height="32" viewBox="0 0 32 32" fill="none" xmlns="http://www.w3.org/2000/svg">
  <!-- Coffee cup -->
  <path d="M8 6C8 4.89543 8.89543 4 10 4H18C19.1046 4 20 4.89543 20 6V8H22C23.1046 8 24 8.89543 24 10V20C24 21.1046 23.1046 22 22 22H10C8.89543 22 8 21.1046 8 20V6Z" fill="#8B4513"/>
  <!-- Coffee liquid -->
  <path d="M10 6V20C10 20.5523 10.4477 21 11 21H21C21.5523 21 22 20.5523 22 20V10C22 9.44772 21.5523 9 21 9H10V6Z" fill="#D2691E"/>
  <!-- Steam lines -->
  <path d="M12 2C12 1.44772 12.4477 1 13 1C13.5523 1 14 1.44772 14 2V4C14 4.55228 13.5523 5 13 5C12.4477 5 12 4.55228 12 4V2Z" fill="#A9A9A9"/>
  <path d="M16 1C16 0.447715 16.4477 0 17 0C17.5523 0 18 0.447715 18 1V3C18 3.55228 17.5523 4 17 4C16.4477 4 16 3.55228 16 3V1Z" fill="#A9A9A9"/>
  <path d="M20 2C20 1.44772 20.4477 1 21 1C21.5523 1 22 1.44772 22 2V4C22 4.55228 21.5523 5 21 5C20.4477 5 20 4.55228 20 4V2Z" fill="#A9A9A9"/>
  <!-- Cup handle -->
  <path d="M24 12C25.1046 12 26 12.8954 26 14V16C26 17.1046 25.1046 18 24 18V12Z" fill="#8B4513"/>
</svg>
